# xmcd
#
# Track frame offsets:
#	150
#	12745
#	28124
#	45488
#	60208
#	71070
#	87705
#	104606
#	123360
#	138775
#	154330
#	168256
#
# Disc length: 2456 seconds
#
# Revision: 2
# Processed by: cddbd v1.5.2PL0 Copyright (c) Steve Scherf et al.
# Submitted via: audiograbber 1.83.01
#
DISCID=a209960c
DTITLE=Luke Austen - Light Of Day
DYEAR=2010
DGENRE=Country
TTITLE0=Look What Love's Got Me Into
TTITLE1=Two Miles Down
TTITLE2=She's So You
TTITLE3=Every Time He Travels Through Cloncurry
TTITLE4=Livin' On Borrowed Dime
TTITLE5=Walkin' Out The Door
TTITLE6=That's How I Roll
TTITLE7=Sacred Bones
TTITLE8=Lonely Highway
TTITLE9=No Such Thing As A Sure Thing
TTITLE10=HQ454 Monroe
TTITLE11=Thorne Amongst The Roses
EXTD=
EXTT0=
EXTT1=
EXTT2=
EXTT3=
EXTT4=
EXTT5=
EXTT6=
EXTT7=
EXTT8=
EXTT9=
EXTT10=
EXTT11=
PLAYORDER=
